<?xml version="1.0" encoding="UTF-8"?>
<svg version="1.1" xmlns="http://www.w3.org/2000/svg" width="192" height="192">
<path d="M0 0 C1.0513916 0.00684814 2.1027832 0.01369629 3.18603516 0.02075195 C11.15817647 0.18532299 17.78492938 1.15857794 25.125 4.4375 C26.43404297 4.99824219 26.43404297 4.99824219 27.76953125 5.5703125 C33.94140847 8.43345677 39.92022395 12.04112534 45.125 16.4375 C45.125 17.0975 45.125 17.7575 45.125 18.4375 C46.61 18.9325 46.61 18.9325 48.125 19.4375 C48.125 20.0975 48.125 20.7575 48.125 21.4375 C49.61 21.9325 49.61 21.9325 51.125 22.4375 C61.26938965 32.55347399 66.44880148 48.94195697 66.54248047 62.97338867 C66.52846191 63.93092041 66.51444336 64.88845215 66.5 65.875 C66.48984863 66.88344971 66.47969727 67.89189941 66.46923828 68.9309082 C66.08175283 87.52270054 58.77323998 101.82290374 45.65234375 114.90234375 C39.66970562 120.4375 39.66970562 120.4375 36.125 120.4375 C36.125 121.0975 36.125 121.7575 36.125 122.4375 C29.86541574 126.51350836 23.28990287 128.45310288 16.125 130.4375 C15.361875 130.66695312 14.59875 130.89640625 13.8125 131.1328125 C-1.83031002 135.33978035 -19.0426645 131.7615485 -33.0625 124.19921875 C-50.25329157 113.43109792 -59.88983992 98.76750244 -65.42138672 79.53808594 C-69.2380146 61.86409975 -64.58205437 43.54858544 -55.0703125 28.6015625 C-51.66320189 23.55451483 -51.66320189 23.55451483 -49.875 21.4375 C-49.215 21.4375 -48.555 21.4375 -47.875 21.4375 C-47.545 20.4475 -47.215 19.4575 -46.875 18.4375 C-33.4801981 6.49816045 -18.00779341 -0.18115034 0 0 Z " fill="#00251E" transform="translate(95.875,29.5625)"/>
<path d="M0 0 C1.72265625 0.87890625 1.72265625 0.87890625 2.91015625 3.50390625 C4.88107213 11.69078762 4.8276051 19.47133761 4.72265625 27.87890625 C2.05598958 27.87890625 -0.61067708 27.87890625 -3.27734375 27.87890625 C-3.59372803 28.67155884 -3.59372803 28.67155884 -3.91650391 29.48022461 C-13.73876843 53.91330747 -13.73876843 53.91330747 -20.77734375 58.44140625 C-24.4331022 59.94287847 -26.3955624 60.53963499 -30.27734375 59.87890625 C-38.315366 56.02735392 -42.13018402 47.37569499 -46.27734375 39.87890625 C-48.65638586 39.90033217 -48.65638586 39.90033217 -51.27734375 40.87890625 C-53.40578418 43.59058699 -53.40578418 43.59058699 -55.15234375 47.06640625 C-55.4889502 47.68555908 -55.82555664 48.30471191 -56.17236328 48.94262695 C-59.19726565 54.5610112 -62.03859833 60.27934298 -64.83203125 66.015625 C-66.27734375 68.87890625 -66.27734375 68.87890625 -68.27734375 71.87890625 C-69.59734375 71.87890625 -70.91734375 71.87890625 -72.27734375 71.87890625 C-73.49970068 67.32284859 -73.01788653 65.02709891 -71.09057617 60.79907227 C-70.03602552 58.30911703 -69.34992284 55.73804885 -68.64257812 53.13183594 C-65.80398105 42.84568294 -61.22661551 34.17601665 -52.27734375 27.87890625 C-48.16267413 27.28040885 -46.01139803 27.48206732 -42.34375 29.46484375 C-38.75956047 32.28653691 -36.90350687 35.10457013 -34.65234375 39.00390625 C-31.58396492 44.63049063 -31.58396492 44.63049063 -26.27734375 47.87890625 C-22.27355698 43.49723399 -20.29051431 38.73757031 -18.08984375 33.31640625 C-17.73470703 32.46626953 -17.37957031 31.61613281 -17.01367188 30.74023438 C-15.51063132 27.10384593 -14.23533571 23.71087409 -13.27734375 19.87890625 C-16.57734375 19.87890625 -19.87734375 19.87890625 -23.27734375 19.87890625 C-23.77234375 17.89890625 -23.77234375 17.89890625 -24.27734375 15.87890625 C-18.97589268 11.46884961 -13.56214835 7.25880086 -7.90234375 3.31640625 C-6.92523438 2.63449219 -5.948125 1.95257813 -4.94140625 1.25 C-2.27734375 -0.12109375 -2.27734375 -0.12109375 0 0 Z " fill="#6BD379" transform="translate(129.27734375,54.12109375)"/>
</svg>
